<svg width="64" height="64" viewBox="0 0 64 64" fill="none" xmlns="http://www.w3.org/2000/svg">
<g clip-path="url(#clip0)">
<path d="M36.2822 40.5099C36.2822 46.3969 41.0547 51.1694 46.9417 51.1694C52.8284 51.1694 57.6008 46.3969 57.6008 40.5099C57.6008 34.6232 52.8284 29.8508 46.9417 29.8508C41.0573 29.8572 36.2887 34.6258 36.2822 40.5099ZM46.9417 31.9824C51.6514 31.9824 55.4692 35.8002 55.4692 40.5099C55.4692 45.2195 51.6514 49.0373 46.9417 49.0373C42.2321 49.0373 38.4143 45.2195 38.4143 40.5099C38.4195 35.8028 42.2342 31.9876 46.9417 31.9824Z" fill="#26A5BA"/>
<path d="M40.8508 61.829H53.0335V63.9606H40.8508V61.829Z" fill="#26A5BA"/>
<path d="M36.2822 57.5648H57.6013V59.6968H36.2822V57.5648Z" fill="#26A5BA"/>
<path d="M12.8315 57.5648H14.9636V59.6968H12.8315V57.5648Z" fill="#26A5BA"/>
<path d="M6.43616 59.6968H8.56781V61.8289H6.43616V59.6968Z" fill="#26A5BA"/>
<path d="M12.9382 51.5662C18.504 41.8725 21.9963 31.1283 23.1935 20.0147L33.1069 29.8692C33.3052 30.0666 33.5731 30.1779 33.853 30.1792C33.9106 30.1797 33.9687 30.1749 34.0255 30.1655C34.3635 30.1104 34.6542 29.8963 34.8068 29.5901C36.8163 25.5792 36.0294 20.732 32.8541 17.5631L31.9824 16.691H39.4799C40.0686 16.6914 40.5464 16.2145 40.5464 15.6258C40.5468 15.5106 40.5279 15.3962 40.4918 15.2874C39.0761 11.0301 35.0924 8.15924 30.6059 8.16354H29.2203L34.5436 2.80927C34.959 2.39214 34.9573 1.71743 34.5402 1.30202C34.4594 1.22161 34.3665 1.15452 34.2646 1.10378C30.252 -0.907891 25.4021 -0.12137 22.2311 3.05567L21.2132 4.07355C20.8812 4.40768 20.5729 4.76374 20.2891 5.13959C20.0087 4.76374 19.7025 4.40768 19.3731 4.07355L18.3553 3.05567C15.1868 -0.11922 10.3395 -0.90574 6.32953 1.10378C5.80275 1.36695 5.58903 2.00727 5.8522 2.53362C5.90295 2.63554 5.97003 2.72842 6.05045 2.80927L11.3798 8.16354H9.98047C5.49399 8.15924 1.50978 11.0301 0.0945642 15.2874C-0.0920678 15.8456 0.209381 16.4493 0.767987 16.6359C0.876784 16.6725 0.991171 16.691 1.10642 16.691H8.59664L7.72497 17.5631C4.54965 20.732 3.7627 25.5792 5.77179 29.5901C5.92488 29.8963 6.21558 30.1104 6.55315 30.1655C6.61034 30.1749 6.66796 30.1797 6.72602 30.1792C7.00769 30.1792 7.27774 30.0679 7.47728 29.8692L16.7087 20.6924C15.5657 30.9068 11.7186 40.6315 5.56408 48.8631C4.13123 48.4868 2.6786 48.1905 1.21307 47.9763L0.546953 47.9093L0.333659 50.0314L0.955049 50.0921C2.02109 50.2447 3.08024 50.4602 4.13381 50.704C3.92052 50.9715 3.70723 51.2433 3.48662 51.5069L5.12159 52.8744C13.3132 43.1351 18.1966 31.044 19.0665 18.3475L20.2934 17.1283L21.2119 18.0417C20.0913 31.6198 15.4306 44.6673 7.69487 55.8824L9.44078 57.1041C10.2789 55.9078 11.0783 54.6663 11.8532 53.4011C16.8394 55.7861 21.242 59.2353 24.7511 63.5059L26.3998 62.1552C24.3249 59.6327 21.9477 57.3746 19.3211 55.4326H63.9967V53.3005H16.163C15.118 52.6697 14.0395 52.0982 12.9382 51.5662ZM33.4617 27.2138L22.1993 16.0163C25.08 15.1562 28.2003 15.9367 30.3367 18.052L31.3546 19.0703C33.4871 21.199 34.2938 24.318 33.4617 27.2138ZM37.8536 14.5593H29.0277C26.9721 13.581 24.653 13.3041 22.425 13.7715C23.9761 11.5904 26.4866 10.2952 29.1631 10.2956H30.602C33.6152 10.2909 36.3928 11.9241 37.8536 14.5593ZM22.717 5.58079L23.7353 4.56292C25.8657 2.42998 28.986 1.62282 31.8831 2.45535L25.5642 8.81159C23.5134 9.56629 21.7529 10.9484 20.5321 12.761C20.0362 10.1533 20.8541 7.46819 22.7205 5.58079H22.717ZM16.845 4.56292L17.8629 5.58079C18.3376 6.06544 18.7496 6.60813 19.0889 7.19555C18.606 8.31835 18.3303 9.51856 18.2744 10.739C17.3176 9.903 16.2154 9.25022 15.0234 8.81159L8.70329 2.45535C11.5995 1.62325 14.7189 2.43041 16.848 4.56292H16.845ZM9.97703 10.2956H11.4163C14.0945 10.293 16.6085 11.5878 18.1613 13.7702C15.9346 13.3045 13.6163 13.5815 11.5621 14.5593H2.73278C4.19316 11.9254 6.96855 10.2926 9.98047 10.2956H9.97703ZM7.12465 27.2138C6.29255 24.318 7.09971 21.199 9.23222 19.0703L10.2501 18.052C11.7836 16.5224 13.8632 15.6662 16.0297 15.6731C16.8291 15.6735 17.6242 15.7875 18.3918 16.012L7.12465 27.2138Z" fill="#26A5BA"/>
</g>
<defs>
<clipPath id="clip0">
<rect width="64" height="64" fill="white"/>
</clipPath>
</defs>
</svg>
