<svg width="64" height="64" viewBox="0 0 64 64" fill="none" xmlns="http://www.w3.org/2000/svg">
<path d="M56.892 24.7225C56.7904 24.3235 56.5516 23.973 56.2175 23.7324C55.8833 23.4919 55.4751 23.3767 55.0645 23.407C53.8198 20.1048 51.8852 17.106 49.3897 14.6107C46.8943 12.1154 43.8953 10.181 40.593 8.93651C40.6235 8.52575 40.5084 8.11737 40.2678 7.78301C40.0273 7.44866 39.6767 7.20968 39.2775 7.10801C34.501 5.90052 29.499 5.90052 24.7225 7.10801C24.3233 7.20978 23.9727 7.44886 23.7321 7.78329C23.4916 8.11773 23.3765 8.52619 23.407 8.93701C20.1037 10.1793 17.1039 12.113 14.6085 14.6085C12.113 17.104 10.1793 20.1037 8.937 23.407C8.52617 23.3765 8.11772 23.4916 7.78328 23.7322C7.44884 23.9727 7.20977 24.3233 7.108 24.7225C5.89466 29.4983 5.89466 34.5017 7.108 39.2775C7.2039 39.6578 7.42431 39.9951 7.73412 40.2355C8.04392 40.476 8.42531 40.6059 8.8175 40.6045C8.8575 40.6045 8.898 40.598 8.938 40.5955C10.1814 43.8978 12.1153 46.8966 14.6105 49.3916C17.1057 51.8866 20.1046 53.8203 23.407 55.0635C23.3765 55.4743 23.4916 55.8827 23.7322 56.217C23.9727 56.5514 24.3233 56.7903 24.7225 56.892C29.4983 58.1053 34.5017 58.1053 39.2775 56.892C39.6767 56.7902 40.0273 56.5512 40.2678 56.2167C40.5084 55.8823 40.6235 55.4738 40.593 55.063C43.8952 53.8197 46.8941 51.886 49.3894 49.3911C51.8846 46.8962 53.8187 43.8976 55.0625 40.5955C55.1025 40.5955 55.1425 40.6045 55.1825 40.6045C55.5747 40.6059 55.9561 40.476 56.2659 40.2355C56.5757 39.9951 56.7961 39.6578 56.892 39.2775C58.1053 34.5017 58.1053 29.4983 56.892 24.7225ZM53.292 23.6685L44.4355 25.05C43.1436 22.7537 41.2462 20.8561 38.95 19.564L40.3335 10.7075C43.2642 11.868 45.926 13.6168 48.1546 15.846C50.3832 18.0752 52.1313 20.7375 53.291 23.6685H53.292ZM38.0305 42.945C37.82 42.8252 37.587 42.75 37.3461 42.7242C37.1052 42.6984 36.8616 42.7225 36.6305 42.795C33.6176 43.745 30.3854 43.745 27.3725 42.795C27.1413 42.7226 26.8977 42.6986 26.6569 42.7244C26.416 42.7502 26.1831 42.8253 25.9725 42.945C23.9075 41.7986 22.2052 40.0962 21.059 38.031C21.1789 37.8205 21.2541 37.5875 21.2799 37.3466C21.3057 37.1058 21.2816 36.8622 21.209 36.631C20.2543 33.6188 20.2543 30.3852 21.209 27.373C21.2815 27.1419 21.3056 26.8983 21.2798 26.6574C21.254 26.4165 21.1788 26.1836 21.059 25.973C22.205 23.9073 23.9077 22.2045 25.9735 21.0585C26.1841 21.1782 26.417 21.2534 26.6579 21.2792C26.8987 21.305 27.1423 21.2809 27.3735 21.2085C30.3864 20.2585 33.6186 20.2585 36.6315 21.2085C36.8632 21.2825 37.1077 21.3073 37.3496 21.2815C37.5914 21.2557 37.8252 21.1797 38.036 21.0585C40.1005 22.2043 41.8021 23.9063 42.9475 25.971C42.8277 26.1816 42.7525 26.4145 42.7267 26.6554C42.7009 26.8963 42.725 27.1399 42.7975 27.371C43.7522 30.3832 43.7522 33.6168 42.7975 36.629C42.725 36.8602 42.7009 37.1038 42.7267 37.3446C42.7525 37.5855 42.8277 37.8185 42.9475 38.029C41.801 40.0957 40.0974 41.799 38.0305 42.945ZM25.1525 8.80451C29.6475 7.65149 34.3618 7.66009 38.8525 8.82951L37.1585 19.5375C35.4902 19.008 33.7503 18.7388 32 18.7395C30.2431 18.743 28.4965 19.0068 26.817 19.5225L25.146 8.82951L25.1525 8.80451ZM23.6685 10.708L25.05 19.564C22.7531 20.8563 20.8555 22.7549 19.5645 25.0525L10.7055 23.668C11.8642 20.7356 13.6126 18.0724 15.8424 15.8431C18.0722 13.6138 20.7359 11.8661 23.6685 10.708ZM8.8295 25.146L9.1295 25.1935C9.15948 25.2093 9.19036 25.2234 9.222 25.2355C9.31224 25.2658 9.4068 25.2814 9.502 25.2815C9.53325 25.2784 9.5643 25.2736 9.595 25.267L19.54 26.8415C19.0096 28.5096 18.7396 30.2496 18.7395 32C18.7429 33.7569 19.0068 35.5035 19.5225 37.183L9.4095 38.763L9.395 38.7655L8.8295 38.854L8.8045 38.8475C8.23745 36.6092 7.95042 34.3091 7.95 32C7.94689 29.687 8.2425 27.3833 8.8295 25.146ZM10.7065 40.3315L19.564 38.95C20.8563 41.2461 22.7539 43.1437 25.05 44.436L23.6665 53.2915C20.7348 52.1324 18.0721 50.3842 15.843 48.155C13.6138 45.9259 11.8656 43.2632 10.7065 40.3315ZM38.8475 55.1955C34.3525 56.3485 29.6382 56.3399 25.1475 55.1705L26.843 44.4625C30.2096 45.5114 33.8149 45.5167 37.1845 44.4775L38.8555 55.1705L38.8475 55.1955ZM40.3315 53.292L38.95 44.4355C41.2463 43.1436 43.1439 41.2462 44.436 38.95L53.2925 40.3335C52.1331 43.265 50.3846 45.9275 48.1553 48.1564C45.926 50.3852 43.2632 52.1332 40.3315 53.292ZM55.1705 38.854L44.4625 37.1585C44.9921 35.4903 45.2612 33.7503 45.2605 32C45.2571 30.2431 44.9932 28.4965 44.4775 26.817L55.1705 25.146L55.1955 25.1525C55.7625 27.3909 56.0496 29.691 56.05 32C56.0531 34.313 55.7575 36.6167 55.1705 38.854Z" fill="#26A5BA"/>
</svg>
