<svg width="64" height="64" viewBox="0 0 64 64" fill="none" xmlns="http://www.w3.org/2000/svg">
<g clip-path="url(#clip0)">
<path d="M32 18.7501C35.4464 18.7501 38.2501 15.9464 38.2501 12.5001C38.2501 9.05387 35.4463 6.25 32 6.25C28.5538 6.25 25.7499 9.05375 25.7499 12.5C25.7499 15.9462 28.5536 18.7501 32 18.7501ZM32 8.75012C34.0678 8.75012 35.75 10.4324 35.75 12.5001C35.75 14.5679 34.0678 16.2501 32 16.2501C29.9323 16.2501 28.25 14.5679 28.25 12.5001C28.25 10.4324 29.9321 8.75012 32 8.75012Z" fill="#26A5BA"/>
<path d="M63.9934 41.0018C63.964 40.7175 63.8377 40.4448 63.6344 40.2414L60.5094 37.1164C60.0211 36.6284 59.2299 36.6284 58.7415 37.1164C58.2534 37.6045 58.2534 38.396 58.7415 38.8843L59.7326 39.8754H44.3326C43.763 37.7566 41.7636 35.9626 38.9255 34.8476C39.448 34.1659 39.9798 33.4565 40.5109 32.7266C45.6464 25.6686 48.2503 20.189 48.2503 16.4401C48.2503 7.375 40.9604 0 32 0C23.0396 0 15.7498 7.375 15.7498 16.4401C15.7498 20.189 18.3536 25.6686 23.4891 32.7266C24.02 33.4562 24.5516 34.1651 25.0738 34.8466C22.2355 35.9618 20.237 37.7565 19.6674 39.8754H4.26727L5.2584 38.8843C5.74652 38.3961 5.74652 37.6046 5.2584 37.1164C4.77027 36.6284 3.97877 36.6284 3.49052 37.1164C3.3844 37.2225 0.485397 40.1165 0.367772 40.2391C0.141022 40.4753 0.00189728 40.7882 -0.000102724 41.1189C-0.00197772 41.4482 0.132522 41.7762 0.365397 42.0093C0.365397 42.0093 3.48977 45.1336 3.4904 45.1343C3.96627 45.6101 4.78127 45.611 5.25827 45.1343C5.7464 44.6461 5.7464 43.8546 5.25827 43.3664L4.26715 42.3753H19.6663C20.5664 45.7248 25.0401 48.264 30.7499 48.5896V59.7326L29.7588 58.7415C29.2706 58.2535 28.4791 58.2535 27.9909 58.7415C27.5028 59.2296 27.5028 60.0211 27.9909 60.5094L31.1159 63.6344C31.12 63.6385 31.1245 63.6419 31.1286 63.6459C31.3616 63.8727 31.6843 64.0025 32.0096 63.9999C32.3338 63.9972 32.654 63.863 32.8839 63.6344L36.0089 60.5094C36.497 60.0213 36.497 59.2298 36.0089 58.7415C35.5206 58.2535 34.7294 58.2535 34.241 58.7415L33.25 59.7327V48.5897C38.9598 48.2641 43.4335 45.7249 44.3336 42.3754H59.7325L58.7414 43.3665C58.2533 43.8546 58.2533 44.6461 58.7414 45.1344C59.2164 45.6094 60.0304 45.613 60.5093 45.1344L63.6343 42.0094C63.6398 42.0039 63.6444 41.9977 63.6498 41.9922C63.8259 41.8101 63.951 41.5549 63.9868 41.2998C63.9892 41.2829 63.9924 41.2662 63.994 41.2492C64.0023 41.1666 64.0019 41.0838 63.9934 41.0018ZM18.2498 16.4401C18.2498 8.7535 24.418 2.5 32 2.5C39.582 2.5 45.7503 8.7535 45.7503 16.4401C45.7503 22.4772 36.557 34.1889 31.9999 39.3758C27.4428 34.1903 18.2498 22.481 18.2498 16.4401ZM39.348 44.4523C37.4058 45.5312 34.7961 46.1255 32 46.1255C29.2039 46.1255 26.5943 45.5312 24.652 44.4521C22.9665 43.5159 21.9999 42.3032 21.9999 41.1254C21.9999 39.9475 22.9666 38.735 24.652 37.7986C25.2711 37.4546 25.9596 37.1615 26.6991 36.92C29.1403 39.9665 31.0503 42.064 31.0771 42.0934C31.314 42.3526 31.6489 42.5004 32 42.5004C32.3513 42.5004 32.686 42.3526 32.923 42.0934C32.9499 42.064 34.8604 39.9659 37.302 36.9186C38.0413 37.1605 38.7289 37.4545 39.348 37.7985C41.0335 38.7349 42.0001 39.9475 42.0001 41.1254C42.0001 42.3032 41.0334 43.5158 39.348 44.4523Z" fill="#26A5BA"/>
<path d="M37.8151 22.1777C37.4151 22.739 37.5464 23.5215 38.1076 23.9215C38.3213 24.0727 38.5713 24.1527 38.8313 24.1527C39.2363 24.1527 39.6176 23.9565 39.8513 23.6277C40.2513 23.0666 40.1189 22.284 39.5576 21.884C39.3451 21.7327 39.0951 21.6527 38.8338 21.6527C38.4301 21.6526 38.0488 21.849 37.8151 22.1777Z" fill="#26A5BA"/>
<path d="M33.0186 33.2252L36.9511 27.7014C37.3511 27.1389 37.2188 26.3576 36.6574 25.9577C36.4449 25.8065 36.1949 25.7252 35.9336 25.7252C35.5299 25.7252 35.1486 25.9227 34.9148 26.2515L32 30.3452L26.0761 22.0252C25.8424 21.6964 25.4611 21.5002 25.0574 21.5002C24.7961 21.5002 24.5461 21.5802 24.3336 21.7315C23.7724 22.1315 23.6399 22.9127 24.0399 23.4741C24.0399 23.4754 24.0399 23.4754 24.0399 23.4754L30.9813 33.2255C31.2163 33.5542 31.5963 33.7505 32.0001 33.7505C32.4036 33.7504 32.7836 33.554 33.0186 33.2252Z" fill="#26A5BA"/>
</g>
<defs>
<clipPath id="clip0">
<rect width="64" height="64" fill="white"/>
</clipPath>
</defs>
</svg>
