<svg width="64" height="64" viewBox="0 0 64 64" fill="none" xmlns="http://www.w3.org/2000/svg">
<path d="M40.6718 51.9186C50.3755 51.9186 58.2699 44.0242 58.2699 34.3206C58.2699 24.6169 50.3755 16.7224 40.6718 16.7224C30.9682 16.7224 23.0736 24.6168 23.0736 34.3206C23.0736 44.0243 30.9682 51.9186 40.6718 51.9186ZM27.5689 33.3777H24.9881C25.2037 29.754 26.6527 26.4574 28.9204 23.9023L30.74 25.7219C30.9241 25.9061 31.1654 25.9981 31.4066 25.9981C31.6478 25.9981 31.8892 25.9061 32.0732 25.7219C32.4414 25.3538 32.4414 24.7568 32.0732 24.3888L30.2536 22.5691C32.8087 20.3014 36.1053 18.8525 39.7289 18.6369V21.2176C39.7289 21.7383 40.1509 22.1604 40.6717 22.1604C41.1925 22.1604 41.6144 21.7383 41.6144 21.2176V18.6369C45.2381 18.8525 48.5347 20.3014 51.0897 22.5691L49.2701 24.3888C48.9019 24.757 48.9019 25.3539 49.2701 25.7219C49.4542 25.906 49.6955 25.9981 49.9368 25.9981C50.178 25.9981 50.4193 25.9061 50.6035 25.7219L52.423 23.9023C54.6906 26.4574 56.1397 29.7539 56.3551 33.3776H53.7744C53.2536 33.3776 52.8316 33.7997 52.8316 34.3203C52.8316 34.841 53.2536 35.2631 53.7744 35.2631H56.3551C56.1395 38.8867 54.6906 42.1833 52.4229 44.7383L50.6033 42.9188C50.2351 42.5506 49.6382 42.5506 49.2701 42.9188C48.9019 43.287 48.9019 43.8839 49.2701 44.252L51.0897 46.0716C48.5346 48.3393 45.2381 49.7883 41.6144 50.0039V47.4231C41.6144 46.9025 41.1925 46.4804 40.6717 46.4804C40.1509 46.4804 39.7289 46.9025 39.7289 47.4231V50.0039C36.1051 49.7883 32.8087 48.3393 30.2536 46.0716L32.0732 44.2521C32.4414 43.8839 32.4414 43.287 32.0732 42.9189C31.7049 42.5506 31.1081 42.5507 30.74 42.9189L28.9204 44.7384C26.6527 42.1833 25.2037 38.8869 24.9881 35.2631H27.5689C28.0895 35.2631 28.5116 34.841 28.5116 34.3203C28.5116 33.7998 28.0895 33.3777 27.5689 33.3777Z" fill="#26A5BA"/>
<path d="M52.1027 52.4656C48.6857 54.623 44.733 55.7632 40.6717 55.7632C28.8482 55.7632 19.229 46.144 19.229 34.3204C19.229 29.5337 20.7713 25.0062 23.6891 21.2274C24.0072 20.8154 23.9312 20.2233 23.519 19.9051C23.107 19.5869 22.5149 19.663 22.1966 20.0751C19.0216 24.1869 17.3435 29.1128 17.3435 34.3204C17.3435 47.1837 27.8085 57.6487 40.6717 57.6487C45.0898 57.6487 49.3908 56.4076 53.1093 54.0598C53.5497 53.7819 53.6812 53.1997 53.4032 52.7593C53.1252 52.3191 52.5431 52.1878 52.1027 52.4656Z" fill="#26A5BA"/>
<path d="M46.3574 11.6942V8.12061C46.3574 7.14492 45.5636 6.35126 44.5881 6.35126H36.7552C35.7795 6.35126 34.9859 7.14492 34.9859 8.12061V11.6932C31.2369 12.6325 27.7586 14.4958 24.8637 17.1647C24.4809 17.5177 24.4566 18.114 24.8095 18.4969C25.1624 18.8796 25.7589 18.904 26.1416 18.551C30.1101 14.8926 35.2703 12.8777 40.6717 12.8777C52.4952 12.8777 62.1144 22.4969 62.1144 34.3204C62.1144 40.3894 59.5253 46.2005 55.0111 50.2633C54.6242 50.6116 54.5928 51.2077 54.9411 51.5947C55.1271 51.8016 55.384 51.9067 55.642 51.9067C55.8667 51.9067 56.0922 51.8269 56.2725 51.6647C61.1833 47.2448 63.9999 40.9229 63.9999 34.3203C64 23.4179 56.4815 14.2394 46.3574 11.6942ZM36.8715 11.3016V8.23675H44.4721V11.3034C43.2349 11.0998 41.9657 10.9922 40.6719 10.9922C39.3889 10.9922 38.1186 11.0968 36.8715 11.3016Z" fill="#26A5BA"/>
<path d="M40.6718 34.9808C41.0255 34.9808 41.3332 34.7858 41.4945 34.4977L44.7466 31.2456C45.1147 30.8774 45.1147 30.2805 44.7466 29.9123C44.3784 29.5441 43.7816 29.5441 43.4131 29.9123L41.6144 31.7109V27.1199C41.6144 26.5992 41.1924 26.1771 40.6716 26.1771C40.1509 26.1771 39.7289 26.5992 39.7289 27.1199V34.0378C39.729 34.5587 40.151 34.9808 40.6718 34.9808Z" fill="#26A5BA"/>
<path d="M13.9118 34.5333C13.9118 34.0126 13.4897 33.5905 12.9691 33.5905H0.942748C0.4221 33.5905 0 34.0126 0 34.5333C0 35.0539 0.4221 35.476 0.942748 35.476H12.9691C13.4897 35.476 13.9118 35.054 13.9118 34.5333Z" fill="#26A5BA"/>
<path d="M4.70288 29.9857H14.2261C14.7468 29.9857 15.1689 29.5636 15.1689 29.0429C15.1689 28.5223 14.7468 28.1002 14.2261 28.1002H4.70288C4.18223 28.1002 3.76013 28.5223 3.76013 29.0429C3.76013 29.5636 4.18211 29.9857 4.70288 29.9857Z" fill="#26A5BA"/>
<path d="M15.4831 22.6098H7.67297C7.15232 22.6098 6.73022 23.0319 6.73022 23.5525C6.73022 24.0732 7.15232 24.4953 7.67297 24.4953H15.4831C16.0037 24.4953 16.4258 24.0732 16.4258 23.5525C16.4258 23.0317 16.0037 22.6098 15.4831 22.6098Z" fill="#26A5BA"/>
<path d="M15.1688 39.5981C15.1688 39.0774 14.7467 38.6553 14.226 38.6553H4.70288C4.18223 38.6553 3.76013 39.0774 3.76013 39.5981C3.76013 40.1187 4.18223 40.5408 4.70288 40.5408H14.2261C14.7467 40.5408 15.1688 40.1187 15.1688 39.5981Z" fill="#26A5BA"/>
<path d="M15.4831 44.1458H7.67297C7.15232 44.1458 6.73022 44.5679 6.73022 45.0885C6.73022 45.6091 7.15232 46.0312 7.67297 46.0312H15.4831C16.0037 46.0312 16.4258 45.6091 16.4258 45.0885C16.4258 44.5679 16.0037 44.1458 15.4831 44.1458Z" fill="#26A5BA"/>
</svg>
