<svg width="64" height="66" viewBox="0 0 64 66" fill="none" xmlns="http://www.w3.org/2000/svg">
<path d="M43.375 17.9403H41.385V14.7638C41.385 14.1296 41.1348 13.5213 40.6894 13.0729C40.244 12.6245 39.6399 12.3725 39.01 12.3725C38.3801 12.3725 37.776 12.6245 37.3306 13.0729C36.8852 13.5213 36.635 14.1296 36.635 14.7638V17.9403H27.25L26.88 5.21443C26.8615 4.64555 26.6244 4.10612 26.2187 3.70975C25.813 3.31338 25.2703 3.09102 24.705 3.0895C24.1391 3.08684 23.5948 3.30786 23.1891 3.70504C22.7834 4.10222 22.5487 4.64384 22.5355 5.21342L22.1655 17.9403H20.625C19.5977 17.9415 18.6127 18.353 17.8863 19.0844C17.1598 19.8158 16.7512 20.8074 16.75 21.8418V34.0749C16.75 35.9466 16.841 37.8379 17.02 39.6986L17.176 41.3165C17.3495 43.1208 17.4375 44.9552 17.4375 46.7701V58.843C17.4387 59.8774 17.8473 60.8691 18.5738 61.6005C19.3002 62.3319 20.2852 62.7433 21.3125 62.7445H42.6875C43.7148 62.7433 44.6998 62.3319 45.4262 61.6005C46.1527 60.8691 46.5613 59.8774 46.5625 58.843V46.7681C46.5625 44.9558 46.6505 43.1188 46.824 41.3145L46.98 39.6965C47.159 37.8339 47.25 35.9446 47.25 34.0729V21.8418C47.2488 20.8074 46.8402 19.8158 46.1137 19.0844C45.3873 18.353 44.4023 17.9415 43.375 17.9403ZM38.385 14.7638C38.385 14.5969 38.4508 14.4368 38.5681 14.3188C38.6853 14.2008 38.8442 14.1345 39.01 14.1345C39.1758 14.1345 39.3347 14.2008 39.4519 14.3188C39.5692 14.4368 39.635 14.5969 39.635 14.7638V17.9403H38.385V14.7638ZM24.2845 5.26376C24.2905 5.1826 24.3191 5.10478 24.367 5.03928C24.415 4.97377 24.4804 4.92325 24.5556 4.89352C24.6309 4.8638 24.7129 4.85608 24.7924 4.87126C24.8718 4.88644 24.9453 4.92391 25.0045 4.97933C25.0823 5.05375 25.1277 5.15623 25.1305 5.26427L25.5 17.9403H23.916L24.2845 5.26376ZM45.5 34.0749C45.5 35.8872 45.412 37.7247 45.2385 39.5284L45.0825 41.1464C44.9035 43.009 44.8125 44.8989 44.8125 46.7701V58.843C44.8118 59.4103 44.5877 59.9541 44.1894 60.3552C43.791 60.7563 43.2509 60.9819 42.6875 60.9826H21.3125C20.7491 60.9819 20.209 60.7563 19.8106 60.3552C19.4123 59.9541 19.1882 59.4103 19.1875 58.843V46.7681C19.1875 44.8969 19.0965 43.005 18.9175 41.1444L18.7615 39.5264C18.588 37.7226 18.5 35.8872 18.5 34.0749V21.8418C18.5007 21.2746 18.7248 20.7308 19.1231 20.3297C19.5215 19.9286 20.0616 19.703 20.625 19.7023H43.375C43.9384 19.703 44.4785 19.9286 44.8769 20.3297C45.2752 20.7308 45.4993 21.2746 45.5 21.8418V34.0749Z" fill="#26A5BA"/>
<path d="M40.75 57.962H35.875C35.6429 57.962 35.4204 58.0549 35.2563 58.2201C35.0922 58.3853 35 58.6094 35 58.843C35 59.0767 35.0922 59.3007 35.2563 59.466C35.4204 59.6312 35.6429 59.724 35.875 59.724H40.75C40.9821 59.724 41.2046 59.6312 41.3687 59.466C41.5328 59.3007 41.625 59.0767 41.625 58.843C41.625 58.6094 41.5328 58.3853 41.3687 58.2201C41.2046 58.0549 40.9821 57.962 40.75 57.962Z" fill="#26A5BA"/>
<path d="M43.375 20.9608H20.625C20.3929 20.9608 20.1704 21.0536 20.0063 21.2188C19.8422 21.3841 19.75 21.6081 19.75 21.8418V32.917C19.75 33.1506 19.8422 33.3747 20.0063 33.5399C20.1704 33.7052 20.3929 33.798 20.625 33.798H43.375C43.6071 33.798 43.8296 33.7052 43.9937 33.5399C44.1578 33.3747 44.25 33.1506 44.25 32.917V21.8418C44.25 21.6081 44.1578 21.3841 43.9937 21.2188C43.8296 21.0536 43.6071 20.9608 43.375 20.9608ZM42.5 32.036H21.5V22.7228H42.5V32.036Z" fill="#26A5BA"/>
<path d="M29.75 41.2526H34.25C34.482 41.2525 34.7045 41.1596 34.8686 40.9944C35.0326 40.8293 35.1249 40.6053 35.125 40.3716V37.3511C35.125 37.1175 35.0328 36.8934 34.8687 36.7282C34.7046 36.563 34.4821 36.4702 34.25 36.4702H29.75C29.5179 36.4702 29.2954 36.563 29.1313 36.7282C28.9672 36.8934 28.875 37.1175 28.875 37.3511V40.3716C28.8751 40.6053 28.9674 40.8293 29.1314 40.9944C29.2955 41.1596 29.518 41.2525 29.75 41.2526ZM30.625 38.2321H33.375V39.4907H30.625V38.2321Z" fill="#26A5BA"/>
<path d="M28.875 46.6644C28.8751 46.898 28.9674 47.122 29.1314 47.2872C29.2955 47.4524 29.518 47.5452 29.75 47.5453H34.25C34.482 47.5452 34.7045 47.4524 34.8686 47.2872C35.0326 47.122 35.1249 46.898 35.125 46.6644V43.6439C35.125 43.4102 35.0328 43.1861 34.8687 43.0209C34.7046 42.8557 34.4821 42.7629 34.25 42.7629H29.75C29.5179 42.7629 29.2954 42.8557 29.1313 43.0209C28.9672 43.1861 28.875 43.4102 28.875 43.6439V46.6644ZM30.625 44.5248H33.375V45.7834H30.625V44.5248Z" fill="#26A5BA"/>
<path d="M35.125 49.9366C35.125 49.7029 35.0328 49.4789 34.8687 49.3136C34.7046 49.1484 34.4821 49.0556 34.25 49.0556H29.75C29.5179 49.0556 29.2954 49.1484 29.1313 49.3136C28.9672 49.4789 28.875 49.7029 28.875 49.9366V52.9571C28.8751 53.1907 28.9674 53.4147 29.1314 53.5799C29.2955 53.7451 29.518 53.8379 29.75 53.8381H34.25C34.482 53.8379 34.7045 53.7451 34.8686 53.5799C35.0326 53.4147 35.1249 53.1907 35.125 52.9571V49.9366ZM33.375 52.0761H30.625V50.8176H33.375V52.0761Z" fill="#26A5BA"/>
<path d="M25.875 36.4702H21.375C21.1429 36.4702 20.9204 36.563 20.7563 36.7282C20.5922 36.8934 20.5 37.1175 20.5 37.3511V40.3716C20.5001 40.6053 20.5924 40.8293 20.7564 40.9944C20.9205 41.1596 21.143 41.2525 21.375 41.2526H25.875C26.107 41.2525 26.3295 41.1596 26.4936 40.9944C26.6576 40.8293 26.7499 40.6053 26.75 40.3716V37.3511C26.75 37.1175 26.6578 36.8934 26.4937 36.7282C26.3296 36.563 26.1071 36.4702 25.875 36.4702ZM25 39.4907H22.25V38.2321H25V39.4907Z" fill="#26A5BA"/>
<path d="M25.875 42.7629H21.375C21.1429 42.7629 20.9204 42.8557 20.7563 43.0209C20.5922 43.1861 20.5 43.4102 20.5 43.6439V46.6644C20.5001 46.898 20.5924 47.122 20.7564 47.2872C20.9205 47.4524 21.143 47.5452 21.375 47.5453H25.875C26.107 47.5452 26.3295 47.4524 26.4936 47.2872C26.6576 47.122 26.7499 46.898 26.75 46.6644V43.6439C26.75 43.4102 26.6578 43.1861 26.4937 43.0209C26.3296 42.8557 26.1071 42.7629 25.875 42.7629ZM25 45.7834H22.25V44.5248H25V45.7834Z" fill="#26A5BA"/>
<path d="M25.875 49.0556H21.375C21.1429 49.0556 20.9204 49.1484 20.7563 49.3136C20.5922 49.4789 20.5 49.7029 20.5 49.9366V52.9571C20.5001 53.1907 20.5924 53.4147 20.7564 53.5799C20.9205 53.7451 21.143 53.8379 21.375 53.8381H25.875C26.107 53.8379 26.3295 53.7451 26.4936 53.5799C26.6576 53.4147 26.7499 53.1907 26.75 52.9571V49.9366C26.75 49.7029 26.6578 49.4789 26.4937 49.3136C26.3296 49.1484 26.1071 49.0556 25.875 49.0556ZM25 52.0761H22.25V50.8176H25V52.0761Z" fill="#26A5BA"/>
<path d="M42.625 36.4702H38.125C37.8929 36.4702 37.6704 36.563 37.5063 36.7282C37.3422 36.8934 37.25 37.1175 37.25 37.3511V40.3716C37.2501 40.6053 37.3424 40.8293 37.5064 40.9944C37.6705 41.1596 37.893 41.2525 38.125 41.2526H42.625C42.857 41.2525 43.0795 41.1596 43.2436 40.9944C43.4076 40.8293 43.4999 40.6053 43.5 40.3716V37.3511C43.5 37.1175 43.4078 36.8934 43.2437 36.7282C43.0796 36.563 42.8571 36.4702 42.625 36.4702ZM41.75 39.4907H39V38.2321H41.75V39.4907Z" fill="#26A5BA"/>
<path d="M42.625 42.7629H38.125C37.8929 42.7629 37.6704 42.8557 37.5063 43.0209C37.3422 43.1861 37.25 43.4102 37.25 43.6439V46.6644C37.2501 46.898 37.3424 47.122 37.5064 47.2872C37.6705 47.4524 37.893 47.5452 38.125 47.5453H42.625C42.857 47.5452 43.0795 47.4524 43.2436 47.2872C43.4076 47.122 43.4999 46.898 43.5 46.6644V43.6439C43.5 43.4102 43.4078 43.1861 43.2437 43.0209C43.0796 42.8557 42.8571 42.7629 42.625 42.7629ZM41.75 45.7834H39V44.5248H41.75V45.7834Z" fill="#26A5BA"/>
<path d="M42.625 49.0556H38.125C37.8929 49.0556 37.6704 49.1484 37.5063 49.3136C37.3422 49.4789 37.25 49.7029 37.25 49.9366V52.9571C37.2501 53.1907 37.3424 53.4147 37.5064 53.5799C37.6705 53.7451 37.893 53.8379 38.125 53.8381H42.625C42.857 53.8379 43.0795 53.7451 43.2436 53.5799C43.4076 53.4147 43.4999 53.1907 43.5 52.9571V49.9366C43.5 49.7029 43.4078 49.4789 43.2437 49.3136C43.0796 49.1484 42.8571 49.0556 42.625 49.0556ZM41.75 52.0761H39V50.8176H41.75V52.0761Z" fill="#26A5BA"/>
</svg>
